# xmcd
#
# Track frame offsets:
#	150
#	11117
#	27030
#	42995
#	65634
#	81192
#	102923
#	119553
#	134790
#	155109
#	171618
#	193222
#	226300
#	251900
#	271801
#
# Disc length: 4221 seconds
#
# Revision: 1
# Processed by: cddbd v1.5.2PL0 Copyright (c) Steve Scherf et al.
# Submitted via: dBpowerAMP V4.0
#
DISCID=e3107b0f
DTITLE=Various Artist - Mulheres Do Futuro
DYEAR=2003
DGENRE=country
TTITLE0=Mulheres do Futuro - Complo
TTITLE1=Talarica - MULHERES DO FUTURO-O COMPLO APRESENTA...
TTITLE2=Imagens - O Complo
TTITLE3=Qual é a Tatica - MULHERES DO FUTURO-O COMPLO APRESENTA...
TTITLE4=Leave Me Alone - MULHERES DO FUTURO-O COMPLO APRESENTA...
TTITLE5=Paga Pra Ver - MULHERES DO FUTURO-O COMPLO APRESENTA...
TTITLE6=O Trafico da Cancao - MULHERES DO FUTURO-O COMPLO APRESENTA...
TTITLE7=O Que o Mundo Diz Agora - MULHERES DO FUTURO-O COMPLO APRESENTA...
TTITLE8=Salve o Rei - MULHERES DO FUTURO-O COMPLO APRESENTA...
TTITLE9=Sou do Gueto - MULHERES DO FUTURO-O COMPLO APRESENTA...
TTITLE10=Sim ou Nao - MULHERES DO FUTURO-O COMPLO APRESENTA...
TTITLE11=Prefiro Dar Um Tempo - MULHERES DO FUTURO-O COMPLO APRESENTA...
TTITLE12=Ideia Certa - MULHERES DO FUTURO-O COMPLO APRESENTA...
TTITLE13=A Noite - MULHERES DO FUTURO-O COMPLO APRESENTA...
TTITLE14=Nao Quero Mais - MULHERES DO FUTURO-O COMPLO APRESENTA...
EXTD=
EXTT0=
EXTT1=
EXTT2=
EXTT3=
EXTT4=
EXTT5=
EXTT6=
EXTT7=
EXTT8=
EXTT9=
EXTT10=
EXTT11=
EXTT12=
EXTT13=
EXTT14=
PLAYORDER=
